<svg width="24" height="40" viewBox="0 0 24 40" fill="none" xmlns="http://www.w3.org/2000/svg">
<path d="M0.888214 21.5608L18.6887 39.361C19.1004 39.773 19.65 40 20.236 40C20.822 40 21.3716 39.773 21.7833 39.361L23.0942 38.0504C23.9472 37.1964 23.9472 35.8085 23.0942 34.9558L8.14669 20.0083L23.1108 5.04417C23.5225 4.63214 23.7498 4.08288 23.7498 3.49719C23.7498 2.91085 23.5225 2.36159 23.1108 1.94924L21.7999 0.639004C21.3879 0.226975 20.8386 -1.50043e-05 20.2526 -1.49531e-05C19.6666 -1.49018e-05 19.117 0.226975 18.7053 0.639004L0.888214 18.4555C0.475535 18.8688 0.248871 19.4206 0.250172 20.0073C0.248871 20.5962 0.475535 21.1478 0.888214 21.5608Z" fill="white"/>
</svg>
