<svg width="24" height="41" viewBox="0 0 24 41" fill="none" xmlns="http://www.w3.org/2000/svg">
<path d="M23.112 19.3313L5.31146 1.53111C4.89976 1.11908 4.35017 0.892091 3.76416 0.89209C3.17815 0.89209 2.62856 1.11908 2.21685 1.53111L0.90597 2.84167C0.0529692 3.69564 0.052969 5.0836 0.90597 5.93628L15.8535 20.8838L0.889379 35.8479C0.477675 36.2599 0.25036 36.8092 0.25036 37.3949C0.25036 37.9812 0.477675 38.5305 0.889379 38.9428L2.20026 40.2531C2.61229 40.6651 3.16156 40.8921 3.74757 40.8921C4.33358 40.8921 4.88317 40.6651 5.29487 40.2531L23.112 22.4366C23.5246 22.0233 23.7513 21.4714 23.75 20.8848C23.7513 20.2958 23.5246 19.7443 23.112 19.3313Z" fill="white"/>
</svg>
